' Generated by UML Generator
' Encoded: jHhBSjiuygwlK2KNPXMbajcRQoOrjcLlN1idtYZ9xXKY4GaJac10K2Cx6t_xTkD1uaLQhibUz00QZKQ_qOtVMqc4xAfordvbTKC4gUPvIThsL4h1DfsaLpclr-oEpb_ETgoWyvo9lAIpcOAQ_uCAMkUC55oS4tOWy--p-Npv7R1Abl-Oinf-uVn918bmBIaBlc94C7uoBtYtAUdyj_dB5oznSeaVuQhi6OmkUlnRAg_q5ZHxbjnZ8UYMjL8GyPdM1SdsfEJ2RWPBzfmL20QOrWCrY4o3p7xOezu8VhXTKx5dERze9V_MKNtQLezzeAGycUDd0FJRlAP_9YRKMPOv4Ll-gUqq4zR0zNfhZxz8x9cf1HPIiOEKai81BS0tMPm0vwKzNN-216tVZriF_wZuGd8wJwo_FtR_KmaYe81gK9M5FvPL9_Dp-2T8UKqBHYGNweIqteDStek2Li2Ieii9Hr33Wq6AWkPqGyMAmG_6Qr81Be1ijo5iJzDP9xPKdF4zgxcc23JX7Q-KFXbf1C2NdUp4my3dH519lbBn1lIF2s2QLfU6bJk2u2J_-kjv1tCLkoDm8etzcYgYNnkrqM2ljQuedG2ZsHEHWGgy5spBQcIINggHEUmeQFk5tD4ZW0UgDVTNz7q3CiqvRQqWDFKvYkaa4AMQu7UineEfXMY1Uc2WcqejupnSxb2CG7fTbjz5k1n0hH7Nj6x9bbQkY9_F1R1G8dPG9bwI3LSutl8_I5Ab0uNJElsNyPCDUfrSpWrVVK2roTFAR1afVS-qODcOVJn6xvs3yug0JuGl_3RdFj0Sl7usiFg-gmkUnOgYHV81TcPxghcsQ9HnCgDYcQ-AuBWWs0HJ0xunIz1wHy7B5_ogtWeuD_A-ZPpbA8OC5diE4wpsGk5BsUqAhBRSqTRPwxAy_PEoxKvgMcgmU7TtLg6EV19bHD8KhgmUD8fLsv30sAq46dL9Dk1Ko8g2_3R67UK2b5RznwNALKhk2zqiWx3PLRpLGbVBReXUHFWm9BYau3GCClLxO9J1z16qaocjAnqYF6oBux5zfbjIax-4o3Bu4dZ5nMsGakGatu7qhadpg-N-b9Ii7tv3sXskSJsnduRqQpDNFu34AVG3sO6hqnm81d-6-PlTaj50iuevHdOgEy9YKskz0xSPp2MYyJQ0UkRWqP9SrwHfTrpYrAZvwXC2hpj8CXGBnY2JNWuqHslvHAm6c3F8lq0p7Wph0AfqT2e122prHb3Ch46ERqYr0O8xAZxIgYc9fDPlAWXjkfSWcDBndKl9CKitXc07QRKX9N5zx5DWDQGMdddOAMkYufgNEzvUj0re2aWsziC3iVyvW_XVwqZrCr6B6z28WhjXPyWUWh3YPCA9jPXA10jqkXW5iKKOn1pzC6TwK4bEhPiR-BBmnp8cAUZd5NogsuOY9YTbtfN8Evgx5mkjF2k8Y-Zt-AG6zTki08VeivIdk9yUAhYpRy-rU5rCOf0Ir99iMCaAKj3Fh6LzGhJ7FtWAm98r-8dE5xv05W2To0y0QONxN1n0lTlMcE5I4n36xXWwOrv8L3Gsc5ABJ1waususd9UKr6u4Rq4OG5dN69-s84q9J1Ps9he6XfSz2tW9LrxDZCVY2IHeLxm1jIrDklGKqgK3g_X9EElwsHiDaut1EZf-F763m2zAxJhXjbAGXXbN2JCeRAC0sLv_doJL8sbKlHG76Tnx4gG7jIU8SCUdPDaZkZYjqSuBKsAWhqw2JTJeBwbHnSeOKKRjK8Jh-RoVYp0-LXil0OgkmC5KS0KyttLxczqOlv0L4tge5b-o0x_caX-rpidqS2tG1L5cUsiIlNujwmipetiFmUgCjDJV_57EJAExgXg8OrmbtXqfNUUoy9tBc6CPZjQxB_zOCLNt3r7bx6IkvuZ3mM33Jm-6z1cUcMCdc14Qq2DCvnpot_8Tb-mBq9pRv4NVHoTpEhLmVRtMB3rsmRztHBQdJNFyAinHpWJP7542GT1_igATWFIkemslTLN0TKRqm3RCJNJk4pmVzXIw_XTGENepYbSD11zndTAvw1KMmFfGkIFjE_1lcUCDOBGsGwD1_W8IUyWiTMZ8KJOdaJ8Cxam3PoDmpyoTku7R3adSjito5GGtI9gqTrW4Wu_7xVX_TRtMoPe9ANlmDm2EeGcTF_3Jf7Bwlo_UCOqoU7KoM1UZAeWcQ3SSsob2ocsruUSWn9HqmtuIZOCpxcy_XIqe4gzmt9XyrXtxrb7s1xyuWBgvEhciC6Kt6NlfpQZgUtBJRDEnig2G3Ppf7qeV9DUxfSkc2kx_JEt2R9CvEpoVX_XrIiwhVmrx8CbchPcyTZSAfjNfSIp9d9J06Ba4ix4Pv1UALjDVOvgIGiWhJ8b03m_K9xiLGqIzvBmu1KyfBNFP5nYnkgIcuOHKr8FVSDTae-3Fme2kGP9X7KAnzTTubUBojg4ZTJAlUlSMKX1JWh55bbCXoAqQTyiioHty8ekofQ9mYp17boHSEaODDIyXCk5GaXYV6sk6KctJF4Yd5yuoxs2elmwykTm6uN0n5GxnT4HBpr1KueZT01Z_VVx4-Ecdhrw-UlBS_VkB__VlJ-O_Ufhv1bJ51hwXW6D779xKIgUy60cwKD23QXDXnwz7cWoTYpXqQimsA47alY6ifkLvgUHgxceIqaomIk7LVrFHwlq6UtZ6YEwzTQJWevcGxxBTEZMMpS13UL5GgxWV6hIMyuqr1ql8j47qBKqBhlexvhVVJ35bRkhJuklEK0ftOKmv7--SEBnbNlMfDfmN7paeLZR26jUbz54GzA1kLtfkB1NKozyHoVP3yMxI6KKbDvMhFPYXVj2i74ov3Sh55Mc8NorEUe1ZoyI3_u8ei7Uhn0yubZM5WzjvbId33MB4p-Pz8ctrAawjfpKilLlAvvhQdwx4XPku_Rf7UIqtU9eWIJw2QMbvmhda6aZ0q5cRPm43NfmzDTfWMW2csH52zMm-1--ksdm1W0dx0pKXWC5_JUME5-gY46rYOcslxXv-mOejDMctas67SBq4B6D3WBwyPmj-BAAZRpaWCY8aTg5rdo3c2huvs7O2SzF4YI6LET_H_2llP3Xhgmsgz12TOWS--WFS6tZTChm9orjRgegejULnpLcTx_DuDu2ui8vly0e1wx1IR1iemQpf6xWDXH34XYqJGsCCkWzZsZBHQbidmYmH3nu2c4g0AOx4KeEqq3PeFy5zPuq5qgYutKCQXVsCQIDjFvCxDeBI2if0NjMGQQQEP_VNwWUxNp8iyYV1BAVm7KWd-8g-PHKR8RHdsz3VfgtM1ffZ46f7LVowAoLhIjuEkdwrxH8Ql-voshPSwRDw6HJJOa0yjSLgcnlGeYTEVrikuvT6gTT1BrxyztNmO2O9XmZZjpcpn7ET5CRWLSro2I31iu4GviMBrz6B0-yXZDgdRwrwprxygSGZ5mwd6U_b9HOWDUb-v6pYDOgY8pp413moENYryW1q-91bafYOv-6paYHCy2fakOpF5FJv4OsjH0MzV3L5qiDMO8cclUAaloODvc6Ffe8TJ2D_0daFuU5rHtkKOKiVTMoohHvsqvDM4GAbp6AaKQv0HvNSQIThSo5gpFIDXw6mrQgedEeMpz8jL6qBtckU4KZKwx356lGr5H5nup04GmuC3ST4Wr8HDGc1sZu095kFMWtwsliirLLK6mLT7xy5g8uKzjWIBRv9EDkvGwf3cAYBfeqzFj0iqSzAqPy0Gz45K8dMahOtj_Cpytj82O2WqHC8RgHlOtGkSSJH1RuetSwBPa70n01YPBU-ww492klbVezZ16Re5HWBrEvrw0Rumr67GKtxVZe1vNhkgD_m40e5v6AmtG8LCi8JXULzXTqCHfEAjH46jtIXzlMA7REe4Az5w1OG4Y2ZQ5JfVHo5cHvPtXVQnn0u016AT64T0MtHrvQlnyRIXM2lEAjTlbFKyAVHj1CrstHfrJhUk5ZW5XzjI0Xkv3El7ZX4iRvg5nRhD1uVPhJife3jVMmMbCUK_t9b4ynZJE_N9keoE9y-zqXjP8m58-0gRusXVmSds5Nb_m0
' URL: http://www.plantuml.com/plantuml/uml/jHhBSjiuygwlK2KNPXMbajcRQoOrjcLlN1idtYZ9xXKY4GaJac10K2Cx6t_xTkD1uaLQhibUz00QZKQ_qOtVMqc4xAfordvbTKC4gUPvIThsL4h1DfsaLpclr-oEpb_ETgoWyvo9lAIpcOAQ_uCAMkUC55oS4tOWy--p-Npv7R1Abl-Oinf-uVn918bmBIaBlc94C7uoBtYtAUdyj_dB5oznSeaVuQhi6OmkUlnRAg_q5ZHxbjnZ8UYMjL8GyPdM1SdsfEJ2RWPBzfmL20QOrWCrY4o3p7xOezu8VhXTKx5dERze9V_MKNtQLezzeAGycUDd0FJRlAP_9YRKMPOv4Ll-gUqq4zR0zNfhZxz8x9cf1HPIiOEKai81BS0tMPm0vwKzNN-216tVZriF_wZuGd8wJwo_FtR_KmaYe81gK9M5FvPL9_Dp-2T8UKqBHYGNweIqteDStek2Li2Ieii9Hr33Wq6AWkPqGyMAmG_6Qr81Be1ijo5iJzDP9xPKdF4zgxcc23JX7Q-KFXbf1C2NdUp4my3dH519lbBn1lIF2s2QLfU6bJk2u2J_-kjv1tCLkoDm8etzcYgYNnkrqM2ljQuedG2ZsHEHWGgy5spBQcIINggHEUmeQFk5tD4ZW0UgDVTNz7q3CiqvRQqWDFKvYkaa4AMQu7UineEfXMY1Uc2WcqejupnSxb2CG7fTbjz5k1n0hH7Nj6x9bbQkY9_F1R1G8dPG9bwI3LSutl8_I5Ab0uNJElsNyPCDUfrSpWrVVK2roTFAR1afVS-qODcOVJn6xvs3yug0JuGl_3RdFj0Sl7usiFg-gmkUnOgYHV81TcPxghcsQ9HnCgDYcQ-AuBWWs0HJ0xunIz1wHy7B5_ogtWeuD_A-ZPpbA8OC5diE4wpsGk5BsUqAhBRSqTRPwxAy_PEoxKvgMcgmU7TtLg6EV19bHD8KhgmUD8fLsv30sAq46dL9Dk1Ko8g2_3R67UK2b5RznwNALKhk2zqiWx3PLRpLGbVBReXUHFWm9BYau3GCClLxO9J1z16qaocjAnqYF6oBux5zfbjIax-4o3Bu4dZ5nMsGakGatu7qhadpg-N-b9Ii7tv3sXskSJsnduRqQpDNFu34AVG3sO6hqnm81d-6-PlTaj50iuevHdOgEy9YKskz0xSPp2MYyJQ0UkRWqP9SrwHfTrpYrAZvwXC2hpj8CXGBnY2JNWuqHslvHAm6c3F8lq0p7Wph0AfqT2e122prHb3Ch46ERqYr0O8xAZxIgYc9fDPlAWXjkfSWcDBndKl9CKitXc07QRKX9N5zx5DWDQGMdddOAMkYufgNEzvUj0re2aWsziC3iVyvW_XVwqZrCr6B6z28WhjXPyWUWh3YPCA9jPXA10jqkXW5iKKOn1pzC6TwK4bEhPiR-BBmnp8cAUZd5NogsuOY9YTbtfN8Evgx5mkjF2k8Y-Zt-AG6zTki08VeivIdk9yUAhYpRy-rU5rCOf0Ir99iMCaAKj3Fh6LzGhJ7FtWAm98r-8dE5xv05W2To0y0QONxN1n0lTlMcE5I4n36xXWwOrv8L3Gsc5ABJ1waususd9UKr6u4Rq4OG5dN69-s84q9J1Ps9he6XfSz2tW9LrxDZCVY2IHeLxm1jIrDklGKqgK3g_X9EElwsHiDaut1EZf-F763m2zAxJhXjbAGXXbN2JCeRAC0sLv_doJL8sbKlHG76Tnx4gG7jIU8SCUdPDaZkZYjqSuBKsAWhqw2JTJeBwbHnSeOKKRjK8Jh-RoVYp0-LXil0OgkmC5KS0KyttLxczqOlv0L4tge5b-o0x_caX-rpidqS2tG1L5cUsiIlNujwmipetiFmUgCjDJV_57EJAExgXg8OrmbtXqfNUUoy9tBc6CPZjQxB_zOCLNt3r7bx6IkvuZ3mM33Jm-6z1cUcMCdc14Qq2DCvnpot_8Tb-mBq9pRv4NVHoTpEhLmVRtMB3rsmRztHBQdJNFyAinHpWJP7542GT1_igATWFIkemslTLN0TKRqm3RCJNJk4pmVzXIw_XTGENepYbSD11zndTAvw1KMmFfGkIFjE_1lcUCDOBGsGwD1_W8IUyWiTMZ8KJOdaJ8Cxam3PoDmpyoTku7R3adSjito5GGtI9gqTrW4Wu_7xVX_TRtMoPe9ANlmDm2EeGcTF_3Jf7Bwlo_UCOqoU7KoM1UZAeWcQ3SSsob2ocsruUSWn9HqmtuIZOCpxcy_XIqe4gzmt9XyrXtxrb7s1xyuWBgvEhciC6Kt6NlfpQZgUtBJRDEnig2G3Ppf7qeV9DUxfSkc2kx_JEt2R9CvEpoVX_XrIiwhVmrx8CbchPcyTZSAfjNfSIp9d9J06Ba4ix4Pv1UALjDVOvgIGiWhJ8b03m_K9xiLGqIzvBmu1KyfBNFP5nYnkgIcuOHKr8FVSDTae-3Fme2kGP9X7KAnzTTubUBojg4ZTJAlUlSMKX1JWh55bbCXoAqQTyiioHty8ekofQ9mYp17boHSEaODDIyXCk5GaXYV6sk6KctJF4Yd5yuoxs2elmwykTm6uN0n5GxnT4HBpr1KueZT01Z_VVx4-Ecdhrw-UlBS_VkB__VlJ-O_Ufhv1bJ51hwXW6D779xKIgUy60cwKD23QXDXnwz7cWoTYpXqQimsA47alY6ifkLvgUHgxceIqaomIk7LVrFHwlq6UtZ6YEwzTQJWevcGxxBTEZMMpS13UL5GgxWV6hIMyuqr1ql8j47qBKqBhlexvhVVJ35bRkhJuklEK0ftOKmv7--SEBnbNlMfDfmN7paeLZR26jUbz54GzA1kLtfkB1NKozyHoVP3yMxI6KKbDvMhFPYXVj2i74ov3Sh55Mc8NorEUe1ZoyI3_u8ei7Uhn0yubZM5WzjvbId33MB4p-Pz8ctrAawjfpKilLlAvvhQdwx4XPku_Rf7UIqtU9eWIJw2QMbvmhda6aZ0q5cRPm43NfmzDTfWMW2csH52zMm-1--ksdm1W0dx0pKXWC5_JUME5-gY46rYOcslxXv-mOejDMctas67SBq4B6D3WBwyPmj-BAAZRpaWCY8aTg5rdo3c2huvs7O2SzF4YI6LET_H_2llP3Xhgmsgz12TOWS--WFS6tZTChm9orjRgegejULnpLcTx_DuDu2ui8vly0e1wx1IR1iemQpf6xWDXH34XYqJGsCCkWzZsZBHQbidmYmH3nu2c4g0AOx4KeEqq3PeFy5zPuq5qgYutKCQXVsCQIDjFvCxDeBI2if0NjMGQQQEP_VNwWUxNp8iyYV1BAVm7KWd-8g-PHKR8RHdsz3VfgtM1ffZ46f7LVowAoLhIjuEkdwrxH8Ql-voshPSwRDw6HJJOa0yjSLgcnlGeYTEVrikuvT6gTT1BrxyztNmO2O9XmZZjpcpn7ET5CRWLSro2I31iu4GviMBrz6B0-yXZDgdRwrwprxygSGZ5mwd6U_b9HOWDUb-v6pYDOgY8pp413moENYryW1q-91bafYOv-6paYHCy2fakOpF5FJv4OsjH0MzV3L5qiDMO8cclUAaloODvc6Ffe8TJ2D_0daFuU5rHtkKOKiVTMoohHvsqvDM4GAbp6AaKQv0HvNSQIThSo5gpFIDXw6mrQgedEeMpz8jL6qBtckU4KZKwx356lGr5H5nup04GmuC3ST4Wr8HDGc1sZu095kFMWtwsliirLLK6mLT7xy5g8uKzjWIBRv9EDkvGwf3cAYBfeqzFj0iqSzAqPy0Gz45K8dMahOtj_Cpytj82O2WqHC8RgHlOtGkSSJH1RuetSwBPa70n01YPBU-ww492klbVezZ16Re5HWBrEvrw0Rumr67GKtxVZe1vNhkgD_m40e5v6AmtG8LCi8JXULzXTqCHfEAjH46jtIXzlMA7REe4Az5w1OG4Y2ZQ5JfVHo5cHvPtXVQnn0u016AT64T0MtHrvQlnyRIXM2lEAjTlbFKyAVHj1CrstHfrJhUk5ZW5XzjI0Xkv3El7ZX4iRvg5nRhD1uVPhJife3jVMmMbCUK_t9b4ynZJE_N9keoE9y-zqXjP8m58-0gRusXVmSds5Nb_m0
' Generated on: 2026-06-16T20:44:02.770477

@startuml
skinparam classAttributeIconSize 0
hide circle

class GerenciadorCaixa {
  -{static} instancia: GerenciadorCaixa
  -saldoDiario: double = 0.0
  --
  -GerenciadorCaixa()
  +{static} getInstance(): GerenciadorCaixa
  +registrarVenda(valor: double): void
  +getSaldoDiario(): double
}

class ProxyServicoEstoque {
  -servicoReal: RealServicoEstoque = new RealServicoEstoque()
  -cargoUsuario: String
  --
  +ProxyServicoEstoque(cargo: String)
  +alterarEstoque(qtd: int): void
}

class RealServicoEstoque {
  +alterarEstoque(qtd: int): void
}

interface ServicoEstoque {
  ~alterarEstoque(qtd: int): void
}

class AtendenteCaixa {
  +AtendenteCaixa(m: CentralMediator)
  +enviarOrdemProducao(m: String): void
  +receberDirecionamento(msg: String): void
}

class BurgerBovino {
  +getNome(): String
}

class BurgerFuturo {
  +getNome(): String
}

class CaretakerHistorico {
  -pilha: Stack<CustomizacaoBurgerMemento> = new Stack<>()
  --
  +salvar(o: OriginatorBurgerCustom): void
  +desfazer(o: OriginatorBurgerCustom): void
}

class CentralDeOperacoesMediator {
  -caixa: AtendenteCaixa
  -cozinha: OperadorCozinha
  --
  +setCaixa(c: AtendenteCaixa): void
  +setCozinha(cz: OperadorCozinha): void
  +enviarMensagem(msg: String, remetente: ColaboradorLoja): void
}

interface CentralMediator {
  ~enviarMensagem(msg: String, remetente: ColaboradorLoja): void
}

abstract class ColaboradorLoja {
  #mediator: CentralMediator
  --
  +ColaboradorLoja(m: CentralMediator)
  +receberDirecionamento(msg: String): void
}

interface ComandaCommand {
  ~execute(): void
  ~undo(): void
}

class CozinhaReceiver {
  +producirBurger(): void
  +descartarBurger(): void
}

class CustomizacaoBurgerMemento {
  -estadoIngredientes: String
  --
  +CustomizacaoBurgerMemento(est: String)
  +getEstado(): String
}

class DetalhesIngredienteFlyweight {
  -nome: String
  -imagemUrl: String
  --
  +DetalhesIngredienteFlyweight(n: String, img: String)
  +getNome(): String
}

abstract class FabricaDeCombo {
  +criarCombo(): Produto
}

interface FabricaInsumos {
  ~criarPao(): Pao
  ~criarProteina(): Proteina
}

class FabricaTradicional {
  +criarPao(): Pao
  +criarProteina(): Proteina
}

class FabricaVegana {
  +criarPao(): Pao
  +criarProteina(): Proteina
}

class FlyweightFactory {
  -{static} cache: Map<String, DetalhesIngredienteFlyweight> = new HashMap<>()
  --
  +{static} getIngrediente(nome: String): DetalhesIngredienteFlyweight
}

class OperadorCozinha {
  +OperadorCozinha(m: CentralMediator)
  +receberDirecionamento(msg: String): void
}

class OriginatorBurgerCustom {
  -ingredientesAtuais: String
  --
  +setIngredientes(ing: String): void
  +getIngredientes(): String
  +criarSnapshot(): CustomizacaoBurgerMemento
  +restaurar(m: CustomizacaoBurgerMemento): void
}

interface Pao {
  ~getNome(): String
}

class PaoBrioche {
  +getNome(): String
}

class PaoVegano {
  +getNome(): String
}

abstract class PreparadorHamburguerTemplate {
  +prepararComboFinal(): void
  -tostarPao(): void
  -embalar(): void
  #grelharProteina(): void
  #adicionarMolhosEspeciais(): void
}

class PreparadorXBacon {
  #grelharProteina(): void
  #adicionarMolhosEspeciais(): void
}

class PrepararPedidoCommand {
  -cozinha: CozinhaReceiver
  --
  +PrepararPedidoCommand(c: CozinhaReceiver)
  +execute(): void
  +undo(): void
}

interface Proteina {
  ~getNome(): String
}

class AdicionalBacon {
  +AdicionalBacon(item: ItemVenda)
  +calcularPreco(): double
  +getDescricao(): String
}

abstract class AdicionalDecorator {
  #itemDecorado: ItemVenda
  --
  +AdicionalDecorator(item: ItemVenda)
}

interface ContabilidadeVisitor {
  ~visitarPrato(prato: PratoComida): void
}

class ContemItemExpressao {
  -item: String
  --
  +ContemItemExpressao(i: String)
  +interpretar(txt: String): boolean
}

class DescontoCupom {
  +aplicarDesconto(valor: double): double
}

class DescontoFidelidade {
  +aplicarDesconto(valor: double): double
}

abstract class DescontoHandler {
  #proximo: DescontoHandler
  --
  +setProximo(proximo: DescontoHandler): void
  +aplicarDesconto(valor: double): double
}

interface ElementoCardapio {
  ~aceitarVisitor(visitor: ContabilidadeVisitor): void
}

interface ExpressaoCupom {
  ~interpretar(textoCarrinho: String): boolean
}

class ExpressaoEAninhada {
  -e1: ExpressaoCupom
  -e2: ExpressaoCupom
  --
  +ExpressaoEAninhada(expressao1: ExpressaoCupom, expressao2: ExpressaoCupom)
  +interpretar(txt: String): boolean
}

class FreteDinamicoChuva {
  +calcular(d: double): double
}

class FreteFixoMoto {
  +calcular(d: double): double
}

interface FreteStrategy {
  ~calcular(distancia: double): double
}

class HamburguerBase {
  +calcularPreco(): double
  +getDescricao(): String
}

class ImpostoEstadualVisitor {
  +visitarPrato(p: PratoComida): void
}

interface ItemVenda {
  ~calcularPreco(): double
  ~getDescricao(): String
}

class PratoComida {
  -preco: double
  --
  +PratoComida(p: double)
  +getPreco(): double
  +aceitarVisitor(v: ContabilidadeVisitor): void
}

interface CanalNotificacao {
  ~enviar(msg: String): void
}

class CanalSMS {
  +enviar(msg: String): void
}

class CanalWhatsApp {
  +enviar(msg: String): void
}

class ComboBrabo {
  +getNome(): String
}

class ComboKids {
  +getNome(): String
}

interface ComponenteCardapio {
  ~exibir(): void
  ~getPreco(): double
}

class CriadorComboBrabo {
  +criarCombo(): Produto
}

class CriadorComboKids {
  +criarCombo(): Produto
}

interface CustomIterator {
  ~hasNext(): boolean
  ~next(): String
}

abstract class Entrega {
  #canal: CanalNotificacao
  --
  +Entrega(canal: CanalNotificacao)
  +despachar(): void
}

class EntregaDelivery {
  +EntregaDelivery(canal: CanalNotificacao)
  +despachar(): void
}

interface EstadoPedido {
  ~avancar(contexto: PedidoContexto): void
  ~getNome(): String
}

class EstadoPreparando {
  +getNome(): String
  +avancar(c: PedidoContexto): void
}

class EstadoPronto {
  +getNome(): String
  +avancar(c: PedidoContexto): void
}

class EstadoRecebido {
  +getNome(): String
  +avancar(c: PedidoContexto): void
}

class HamburguerCustomizado {
  -pao: String
  -proteina: String
  -queijoExtra: boolean
  -molhoEspecial: boolean
  --
  -HamburguerCustomizado(builder: Builder)
  +toString(): String
}

class Builder {
  -pao: String
  -proteina: String
  -queijoExtra: boolean
  -molhoEspecial: boolean
  --
  +Builder(pao: String, proteina: String)
  +comQueijoExtra(): Builder
  +comMolhoEspecial(): Builder
  +build(): HamburguerCustomizado
}

class HamburgueriaFacade {
  +fecharPedidoCompleto(detalhesPedido: String, valor: double): void
}

class IFoodAdapter {
  -ifood: PedidoIFoodExterno
  --
  +IFoodAdapter(ifood: PedidoIFoodExterno)
  +getDescricaoPedido(): String
}

class ItemCardapioPrototype {
  -nome: String
  -ingredientes: List<String> = new ArrayList<>()
  --
  +ItemCardapioPrototype(nome: String)
  +addIngrediente(ing: String): void
  +getIngredientes(): List<String>
  +getNome(): String
  +clone(): ItemCardapioPrototype
}

class ItemSimples {
  -nome: String
  -preco: double
  --
  +ItemSimples(nome: String, preco: double)
  +exibir(): void
  +getPreco(): double
}

class ListaPedidos {
  -lista: String = { "Pedido #101", "Pedido #102", "Pedido #103" }
  --
  +obterIterator(): CustomIterator
}

class InternoIterator {
  -index: int = 0
  --
  +hasNext(): boolean
  +next(): String
}

class NotificadorPainelCliente {
  +atualizar(est: String): void
}

interface Observer {
  ~atualizar(estado: String): void
}

class PedidoContexto {
  -estadoAtual: EstadoPedido = new EstadoRecebido()
  -obs: List<Observer> = new ArrayList<>()
  --
  +registrarObserver(o: Observer): void
  +setEstado(e: EstadoPedido): void
  +getEstado(): EstadoPedido
  +proximoEstagio(): void
  -notificarTodos(): void
}

class PedidoIFoodExterno {
  +getItensDoIFood(): String
}

interface PedidoNativo {
  ~getDescricaoPedido(): String
}

abstract class Produto {
  +getNome(): String
}

class RegistroPrototypes {
  -{static} mapa: Map<String, ItemCardapioPrototype> = new HashMap<>()
  --
  +{static} getPrototype(chave: String): ItemCardapioPrototype
}

class SecaoCardapioComposite {
  -nome: String
  -componentes: List<ComponenteCardapio> = new ArrayList<>()
  --
  +SecaoCardapioComposite(nome: String)
  +adicionar(c: ComponenteCardapio): void
  +exibir(): void
  +getPreco(): double
}

class HamburgueriaCompletaTest {
  +testSingletonCaixa(): void
  +testAbstractFactoryInsumos(): void
  +testPrototypeClonagem(): void
  +testBuilderHamburguer(): void
  +testFactoryMethodCombos(): void
  +testAdapterIFood(): void
  +testBridgeEntregaNotificacao(): void
  +testCompositeCardapio(): void
  +testDecoratorAdicionais(): void
  +testFlyweightCompartilhamento(): void
  +testProxySeguranca(): void
  +testFacadeCheckout(): void
  +testStrategyFrete(): void
  +testChainResponsibilityDescontos(): void
  +testTemplateMethodPreparo(): void
  +testStateEObserverPedido(): void
  +testCommandCozinha(): void
  +testMementoCustomizacao(): void
  +testIteratorPedidos(): void
  +testMediatorCentral(): void
  +testInterpreterCupons(): void
  +testVisitorImpostos(): void
  +testFalhaCommandUndoSemExecute(): void
  +testFalhaBuilderValoresVazios(): void
  +testFalhaStrategyValoresInvalidos(): void
  +testFalhaCompositeSemFilhos(): void
  +testFalhaIteratorEstouroDeLimite(): void
  +testFalhaMediatorColaboradoresDesconectados(): void
  +testDecoratorMultiplosAdicionaisIguais(): void
  +testSucessoProxyGerente(): void
  +testSucessoStrategyFreteFixo(): void
}

GerenciadorCaixa *-- GerenciadorCaixa
ProxyServicoEstoque ..|> ServicoEstoque
ProxyServicoEstoque *-- RealServicoEstoque
RealServicoEstoque ..|> ServicoEstoque
AtendenteCaixa --|> ColaboradorLoja
AtendenteCaixa ..> CentralMediator
BurgerBovino ..|> Proteina
BurgerFuturo ..|> Proteina
CaretakerHistorico o-- CustomizacaoBurgerMemento
CaretakerHistorico ..> OriginatorBurgerCustom
CentralDeOperacoesMediator ..|> CentralMediator
CentralDeOperacoesMediator *-- AtendenteCaixa
CentralDeOperacoesMediator *-- OperadorCozinha
CentralDeOperacoesMediator ..> ColaboradorLoja
CentralMediator ..> ColaboradorLoja
ColaboradorLoja --> CentralMediator
FabricaDeCombo ..> Produto
FabricaInsumos ..> Pao
FabricaInsumos ..> Proteina
FabricaTradicional ..|> FabricaInsumos
FabricaTradicional ..> Pao
FabricaTradicional ..> Proteina
FabricaVegana ..|> FabricaInsumos
FabricaVegana ..> Pao
FabricaVegana ..> Proteina
FlyweightFactory o-- DetalhesIngredienteFlyweight
OperadorCozinha --|> ColaboradorLoja
OperadorCozinha ..> CentralMediator
OriginatorBurgerCustom ..> CustomizacaoBurgerMemento
PaoBrioche ..|> Pao
PaoVegano ..|> Pao
PreparadorXBacon --|> PreparadorHamburguerTemplate
PrepararPedidoCommand ..|> ComandaCommand
PrepararPedidoCommand *-- CozinhaReceiver
AdicionalBacon --|> AdicionalDecorator
AdicionalBacon ..> ItemVenda
AdicionalDecorator ..|> ItemVenda
AdicionalDecorator --> ItemVenda
ContabilidadeVisitor ..> PratoComida
ContemItemExpressao ..|> ExpressaoCupom
DescontoCupom --|> DescontoHandler
DescontoFidelidade --|> DescontoHandler
DescontoHandler --> DescontoHandler
ElementoCardapio ..> ContabilidadeVisitor
ExpressaoEAninhada ..|> ExpressaoCupom
ExpressaoEAninhada *-- ExpressaoCupom
FreteDinamicoChuva ..|> FreteStrategy
FreteFixoMoto ..|> FreteStrategy
HamburguerBase ..|> ItemVenda
ImpostoEstadualVisitor ..|> ContabilidadeVisitor
ImpostoEstadualVisitor ..> PratoComida
PratoComida ..|> ElementoCardapio
PratoComida ..> ContabilidadeVisitor
CanalSMS ..|> CanalNotificacao
CanalWhatsApp ..|> CanalNotificacao
ComboBrabo --|> Produto
ComboKids --|> Produto
CriadorComboBrabo --|> FabricaDeCombo
CriadorComboBrabo ..> Produto
CriadorComboKids --|> FabricaDeCombo
CriadorComboKids ..> Produto
Entrega --> CanalNotificacao
EntregaDelivery --|> Entrega
EntregaDelivery ..> CanalNotificacao
EstadoPedido ..> PedidoContexto
EstadoPreparando ..|> EstadoPedido
EstadoPreparando ..> PedidoContexto
EstadoPronto ..|> EstadoPedido
EstadoPronto ..> PedidoContexto
EstadoRecebido ..|> EstadoPedido
EstadoRecebido ..> PedidoContexto
HamburguerCustomizado ..> Builder
Builder ..> Builder
Builder ..> HamburguerCustomizado
IFoodAdapter ..|> PedidoNativo
IFoodAdapter *-- PedidoIFoodExterno
ItemCardapioPrototype ..> ItemCardapioPrototype
ItemSimples ..|> ComponenteCardapio
ListaPedidos ..> CustomIterator
InternoIterator ..|> CustomIterator
NotificadorPainelCliente ..|> Observer
PedidoContexto *-- EstadoPedido
PedidoContexto o-- Observer
RegistroPrototypes o-- ItemCardapioPrototype
SecaoCardapioComposite ..|> ComponenteCardapio
SecaoCardapioComposite o-- ComponenteCardapio
@enduml